Coordinates
version=1
nRows=21
nColumns=22
inDegrees=yes

Units are S.I. units (second, meters, Newtons, ...)
If the header above contains a line with 'inDegrees', this indicates whether rotational values are in degrees (yes) or radians (no).

endheader
time	pelvis_tilt	pelvis_list	pelvis_rotation	pelvis_tx	pelvis_ty	pelvis_tz	hip_flexion_r	hip_adduction_r	hip_rotation_r	knee_angle_r	ankle_angle_r	subtalar_angle_r	hip_flexion_l	hip_adduction_l	hip_rotation_l	knee_angle_l	ankle_angle_l	subtalar_angle_l	lumbar_extension	lumbar_bending	lumbar_rotation
      2.79000000	      1.40941433	      1.52025003	    -31.17510201	     -0.20422941	      0.87724267	      0.00375262	    -11.84746659	     -0.28907192	      4.89636103	    -33.54604409	      7.48051439	      6.39847528	     26.45149033	      1.55696508	     -8.88469961	    -30.75141145	      7.67839142	     -7.84328929	     -7.30824089	     -3.95325379	     10.48393788
      2.80000000	      1.52000177	      1.66307360	    -31.23466075	     -0.19530527	      0.87853408	      0.00719650	    -10.54611032	     -0.47940661	      5.38440021	    -36.43852163	      5.81277990	      6.74396953	     25.72002273	      1.88035489	     -8.95823655	    -30.69451956	      8.16942848	     -8.05577683	     -7.27497472	     -4.18511946	     10.59425544
      2.81000000	      1.62803431	      1.81969318	    -31.27566211	     -0.18659043	      0.87979637	      0.01048290	     -9.09105618	     -0.70168834	      5.67646283	    -39.44590349	      4.22995271	      7.26223029	     24.93794512	      2.22127359	     -9.06785493	    -30.50521470	      8.68039368	     -8.36626307	     -7.25968929	     -4.41436450	     10.60171504
      2.82000000	      1.81114572	      2.03304879	    -31.38055403	     -0.17807776	      0.88107617	      0.01373664	     -7.53801486	     -1.08852684	      5.77507786	    -42.52765968	      2.95786154	      7.32945271	     24.03076276	      2.61559080	     -9.35910854	    -30.14839754	      9.15552773	     -8.44486303	     -7.29848113	     -4.73638139	     10.59839704
      2.83000000	      2.00221034	      2.27880884	    -31.50146788	     -0.16973904	      0.88231059	      0.01684130	     -5.87749058	     -1.57963181	      5.70757882	    -45.58568821	      1.93709303	      7.34168000	     23.09144741	      3.04970738	     -9.67940657	    -29.68283098	      9.57693925	     -8.54346168	     -7.34349980	     -5.07392400	     10.56662868
      2.84000000	      2.22520121	      2.55707625	    -31.63897546	     -0.16152967	      0.88354122	      0.01983654	     -4.17084117	     -2.19972322	      5.49622825	    -48.53116607	      1.23818424	      7.19571232	     22.10635398	      3.53618080	    -10.02658793	    -29.12719367	      9.94129440	     -8.62880178	     -7.40725718	     -5.44003617	     10.49791998
      2.85000000	      2.47560985	      2.85197222	    -31.77698259	     -0.15341733	      0.88478400	      0.02270546	     -2.45752422	     -2.92734195	      5.18539259	    -51.29499223	      0.89896164	      6.83142472	     21.08503326	      4.06927625	    -10.36111686	    -28.50125249	     10.24114939	     -8.69187340	     -7.49644038	     -5.81683033	     10.38589280
      2.86000000	      2.75128984	      3.11936532	    -31.90743254	     -0.14539060	      0.88609403	      0.02552461	     -0.79502084	     -3.71224327	      4.79021779	    -53.80350638	      0.93181708	      5.72646441	     20.02491263	      4.59925226	    -10.67865783	    -27.85434251	     10.48573809	     -8.83343338	     -7.62431055	     -6.16816677	     10.23169435
      2.87000000	      3.02272846	      3.35601222	    -31.99715428	     -0.13742465	      0.88744032	      0.02822284	      0.82081710	     -4.51593066	      4.34106301	    -56.02952846	      1.28156575	      4.54280933	     18.95844564	      5.12908823	    -10.89999291	    -27.19232814	     10.68634966	     -8.83550240	     -7.77131997	     -6.46506231	     10.02864020
      2.88000000	      3.27200674	      3.53431461	    -32.03730502	     -0.12954346	      0.88883576	      0.03085817	      2.36805506	     -5.27107392	      3.87112797	    -57.94092650	      1.91227116	      3.06798509	     17.89307603	      5.61466515	    -11.02028559	    -26.53609203	     10.86197625	     -8.81713902	     -7.93490383	     -6.68083379	      9.76148045
      2.89000000	      3.49262016	      3.64221921	    -32.02698576	     -0.12175175	      0.89028087	      0.03344410	      3.83727797	     -5.95211344	      3.38160026	    -59.53005042	      2.73350825	      1.36966482	     16.83346202	      6.03243604	    -11.05842694	    -25.90151587	     11.00887277	     -8.77899315	     -8.11580407	     -6.80140770	      9.45631378
      2.90000000	      3.67062973	      3.67045120	    -31.95906007	     -0.11406287	      0.89176508	      0.03600349	      5.22093146	     -6.51460836	      2.89058666	    -60.78660484	      3.71323018	     -0.50068040	     15.78047176	      6.36772898	    -10.98402642	    -25.28077764	     11.14711295	     -8.72235950	     -8.30400671	     -6.81491137	      9.12349161
      2.91000000	      3.81365579	      3.62974911	    -31.83231203	     -0.10645602	      0.89327684	      0.03853981	      6.51486016	     -6.96929865	      2.38972385	    -61.72130221	      4.75466587	     -2.41650306	     14.73015529	      6.62147762	    -10.85738437	    -24.67309258	     11.27022884	     -8.65388516	     -8.50078847	     -6.73748252	      8.76467727
      2.92000000	      3.93205380	      3.52589211	    -31.66019814	     -0.09894576	      0.89479125	      0.04108588	      7.71787046	     -7.31819617	      1.88777380	    -62.35241494	      5.81817475	     -4.30854872	     13.67904798	      6.79565490	    -10.70055264	    -24.08606401	     11.40579985	     -8.57478370	     -8.70888705	     -6.58508572	      8.37663099
      2.93000000	      4.03484885	      3.37092050	    -31.45249418	     -0.09150799	      0.89629946	      0.04365425	      8.82510879	     -7.56540776	      1.40619211	    -62.68902107	      6.86911495	     -6.05169416	     12.61037031	      6.90919775	    -10.50213142	    -23.49192581	     11.53040977	     -8.49055438	     -8.92609137	     -6.37777745	      7.98873235
      2.94000000	      4.13208665	      3.18149984	    -31.21845013	     -0.08412172	      0.89776231	      0.04624545	      9.84473491	     -7.74153777	      0.93431533	    -62.75700493	      7.89174448	     -7.58915417	     11.52878227	      6.97553146	    -10.29222464	    -22.89964295	     11.66162039	     -8.39896598	     -9.15116598	     -6.13530014	      7.59006493
      2.95000000	      4.22585629	      2.97070077	    -30.97083050	     -0.07678935	      0.89913970	      0.04886957	     10.79163972	     -7.85808611	      0.47819990	    -62.58198123	      8.88108725	     -8.91022032	     10.44711645	      7.00239214	    -10.09791152	    -22.32049710	     11.80643760	     -8.29927493	     -9.37659970	     -5.87328657	      7.19179306
      2.96000000	      4.31588938	      2.75327479	    -30.72098410	     -0.06950181	      0.90039324	      0.05152277	     11.68279742	     -7.93896109	      0.02969599	    -62.18627467	      9.83784163	    -10.03381756	      9.38176304	      7.00341836	     -9.92048540	    -21.76764916	     11.96030828	     -8.19101598	     -9.59357774	     -5.60517786	      6.81337889
      2.97000000	      4.40923377	      2.53922367	    -30.46542128	     -0.06225986	      0.90151327	      0.05419116	     12.52098797	     -8.00177015	     -0.41932580	    -61.58972518	     10.74358032	    -10.97105611	      8.33352410	      6.99746277	     -9.72838342	    -21.24087708	     12.11676173	     -8.07578703	     -9.80818039	     -5.34412697	      6.42556717
      2.98000000	      4.48981268	      2.34167646	    -30.23437342	     -0.05509158	      0.90243018	      0.05692245	     13.34362467	     -8.04413926	     -0.84356555	    -60.82034277	     11.65347856	    -11.87686820	      7.34790233	      6.97043984	     -9.61815126	    -20.78414886	     12.31117869	     -7.95086161	     -9.99431529	     -5.10048208	      6.06662239
      2.99000000	      4.57850747	      2.14708556	    -29.95899351	     -0.04790448	      0.90323084	      0.05960202	     14.09343045	     -8.10659511	     -1.35047956	    -59.86616196	     12.44137960	    -12.42738517	      6.36766614	      6.96008972	     -9.37815448	    -20.34154434	     12.51007476	     -7.84471401	    -10.18702392	     -4.85835404	      5.68727580
